<?xml version="1.0" standalone="no"?>
<!DOCTYPE svg PUBLIC "-//W3C//DTD SVG 20010904//EN"
 "http://www.w3.org/TR/2001/REC-SVG-20010904/DTD/svg10.dtd">
<svg version="1.0" xmlns="http://www.w3.org/2000/svg"
 width="840.000000pt" height="840.000000pt" viewBox="0 0 840.000000 840.000000"
 preserveAspectRatio="xMidYMid meet">
<metadata>
Created by potrace 1.11, written by Peter Selinger 2001-2013
</metadata>
<g transform="translate(0.000000,840.000000) scale(0.100000,-0.100000)"
fill="#000000" stroke="none">
<path d="M19 8352 c66 -166 104 -261 116 -287 7 -16 64 -156 125 -310 128
-321 122 -307 146 -360 9 -22 25 -60 34 -85 24 -64 429 -1071 440 -1095 5 -11
25 -59 44 -107 19 -49 39 -95 44 -103 4 -9 61 -34 124 -55 670 -224 1149 -804
1245 -1505 10 -73 11 -388 1 -465 -17 -137 -64 -318 -118 -455 -199 -501 -604
-882 -1125 -1060 -60 -21 -115 -43 -121 -49 -6 -6 -104 -245 -219 -531 -114
-286 -213 -533 -220 -550 -39 -89 -533 -1331 -530 -1333 2 -2 11 1 22 7 10 6
205 85 433 177 228 91 431 173 450 181 19 8 44 18 55 23 11 4 54 21 95 38 41
17 120 48 175 70 316 126 783 314 800 322 11 5 79 32 150 61 222 87 223 88
236 128 83 268 206 498 366 687 299 353 725 586 1173 641 81 10 408 10 475 0
484 -72 898 -306 1196 -677 116 -145 238 -370 304 -565 21 -60 43 -115 49
-121 6 -6 256 -109 556 -228 300 -120 559 -223 575 -231 17 -7 140 -57 275
-110 135 -53 259 -103 275 -110 25 -11 523 -211 687 -276 l48 -19 -21 53 c-47
120 -122 304 -134 332 -7 17 -31 75 -53 130 -21 55 -110 276 -197 490 -86 215
-186 462 -221 550 -35 88 -68 169 -73 180 -5 11 -37 90 -71 175 -34 85 -94
233 -133 328 l-72 174 -100 32 c-121 40 -272 105 -326 140 -21 14 -41 26 -45
26 -11 0 -158 102 -224 155 -361 290 -610 736 -667 1195 -17 141 -8 462 17
575 5 22 11 54 14 70 25 144 150 436 254 594 231 353 584 620 988 747 87 28
91 30 107 69 19 47 199 497 228 570 11 28 24 59 29 70 5 11 59 146 121 300 61
154 117 294 124 310 7 17 54 134 105 260 50 127 96 241 102 255 58 139 245
616 243 618 -2 2 -11 -1 -22 -7 -10 -6 -160 -67 -333 -136 -173 -69 -324 -130
-335 -135 -11 -5 -128 -52 -260 -105 -132 -52 -249 -100 -260 -105 -11 -5
-135 -54 -275 -110 -140 -56 -280 -112 -310 -125 -30 -13 -113 -47 -185 -75
-71 -28 -139 -55 -150 -60 -11 -5 -72 -30 -135 -55 -63 -25 -121 -49 -128 -53
-7 -4 -31 -61 -53 -127 -64 -192 -200 -444 -307 -567 -154 -179 -274 -287
-438 -394 -190 -124 -438 -222 -671 -266 -95 -18 -155 -22 -313 -23 -107 0
-222 4 -255 8 -316 42 -663 191 -911 391 -267 216 -469 505 -584 836 -24 69
-48 130 -54 136 -6 6 -189 82 -406 169 -217 86 -408 163 -425 170 -16 7 -129
52 -250 100 -121 47 -233 93 -250 100 -16 8 -95 39 -175 70 -80 31 -158 63
-175 70 -24 11 -487 196 -687 276 l-48 19 19 -48z m4306 -3711 c205 -65 338
-247 331 -452 -10 -260 -219 -456 -474 -444 -128 6 -209 42 -302 135 -100 100
-139 196 -135 331 3 123 41 215 124 302 90 96 205 145 336 142 44 0 98 -7 120
-14z"/>
</g>
</svg>
