<?xml version="1.0" standalone="no"?>
<!DOCTYPE svg PUBLIC "-//W3C//DTD SVG 20010904//EN"
 "http://www.w3.org/TR/2001/REC-SVG-20010904/DTD/svg10.dtd">
<svg version="1.0" xmlns="http://www.w3.org/2000/svg"
 width="1200.000000pt" height="1200.000000pt" viewBox="0 0 1200.000000 1200.000000"
 preserveAspectRatio="xMidYMid meet">
<metadata>
Created by potrace 1.11, written by Peter Selinger 2001-2013
</metadata>
<g transform="translate(0.000000,1200.000000) scale(0.100000,-0.100000)"
fill="#000000" stroke="none">
<path d="M1809 10177 c8 -21 132 -328 406 -1007 68 -168 202 -501 298 -740
248 -615 245 -608 255 -626 5 -9 53 -31 108 -49 335 -110 637 -312 842 -565
21 -25 43 -52 51 -60 50 -52 167 -253 231 -394 35 -78 93 -251 104 -311 2 -11
12 -63 22 -115 20 -102 27 -431 11 -540 -45 -319 -168 -618 -356 -870 -75
-101 -258 -284 -356 -357 -158 -118 -344 -215 -534 -280 -58 -20 -111 -41
-117 -47 -6 -6 -41 -87 -78 -181 -37 -93 -71 -179 -76 -190 -5 -11 -169 -420
-365 -910 -196 -489 -360 -899 -365 -910 -22 -47 -88 -220 -85 -223 2 -2 11 1
22 7 10 6 54 25 98 42 44 17 94 37 110 44 17 7 154 63 305 123 151 61 347 139
435 175 88 36 286 115 440 177 154 61 294 118 310 125 17 7 53 22 80 33 52 20
341 136 385 154 14 6 69 29 123 52 l98 41 40 119 c192 575 659 1023 1237 1186
59 16 122 32 141 35 19 3 37 7 40 9 31 19 446 28 561 13 57 -7 66 -9 160 -28
179 -36 454 -153 618 -263 299 -200 531 -478 671 -806 18 -41 36 -84 41 -95 5
-11 18 -51 31 -90 12 -38 25 -74 30 -79 8 -9 188 -86 202 -86 4 0 26 -9 50
-19 32 -15 1870 -754 2115 -850 l52 -21 -19 48 c-10 26 -57 142 -104 257 -206
510 -501 1244 -517 1285 -9 25 -24 61 -32 80 -16 35 -125 304 -158 390 -40
102 -103 258 -123 303 l-22 48 -116 39 c-320 107 -633 318 -824 556 -22 27
-46 56 -54 64 -25 26 -136 202 -178 280 -90 173 -162 402 -190 605 -18 134 -8
466 17 580 5 22 12 55 15 73 10 56 65 222 108 322 70 165 204 372 321 499 60
64 161 161 188 179 13 9 30 23 38 31 36 35 228 153 332 204 62 30 163 72 223
93 61 20 115 42 121 48 6 6 84 196 174 421 90 226 173 434 186 463 13 29 24
57 24 62 0 6 4 18 9 28 16 32 30 66 136 332 58 146 109 274 115 285 5 11 50
124 100 250 50 127 95 239 100 250 5 11 28 67 51 125 22 58 49 126 60 152 l19
48 -53 -22 c-28 -11 -97 -38 -152 -60 -55 -22 -113 -45 -130 -53 -16 -7 -145
-59 -285 -115 -140 -55 -264 -105 -275 -110 -21 -10 -200 -82 -570 -230 -126
-50 -243 -98 -260 -105 -16 -7 -142 -58 -280 -113 -354 -142 -397 -160 -405
-169 -4 -4 -19 -48 -34 -97 -38 -122 -143 -352 -182 -397 -8 -8 -14 -19 -14
-22 0 -11 -69 -105 -139 -192 -169 -206 -406 -389 -649 -498 -167 -76 -283
-110 -512 -153 -58 -10 -411 -13 -470 -4 -49 9 -140 24 -195 34 -11 2 -40 10
-65 17 -25 7 -49 14 -55 15 -111 28 -360 146 -485 229 -150 100 -313 249 -421
385 -132 165 -284 459 -330 638 l-12 50 -346 137 c-190 76 -359 144 -376 151
-26 12 -1518 610 -1652 663 l-52 20 8 -22z m4306 -3734 c85 -24 137 -55 205
-123 92 -91 131 -177 136 -301 8 -179 -97 -357 -251 -427 -61 -28 -71 -32
-115 -41 -41 -9 -154 -8 -190 1 -157 41 -274 145 -328 290 -64 172 -25 345
108 479 119 119 281 165 435 122z"/>
</g>
</svg>
