<svg xmlns="http://www.w3.org/2000/svg" xmlns:xlink="http://www.w3.org/1999/xlink" version="1.1" x="0px" y="0px" viewBox="0 0 100 100" enable-background="new 0 0 100 100" xml:space="preserve"><path d="M76.9,64.9C76.9,64.9,76.9,64.9,76.9,64.9c-2.6-0.7-5-2-7-4c-6-6-6-15.7,0-21.7c2-2,4.5-3.3,7-4c0,0,0,0,0,0L85,15  l-20.1,8.1c0,0,0,0,0,0c-0.7,2.6-2,5-4,7c-6,6-15.7,6-21.7,0c-2-2-3.3-4.5-4-7c0,0,0,0,0,0L15,15l8.1,20.1c0,0,0,0,0,0  c2.6,0.7,5,2,7,4c6,6,6,15.7,0,21.7c-2,2-4.5,3.3-7,4c0,0,0,0,0,0L15,85l20.1-8.1c0,0,0,0,0,0c0.7-2.6,2-5,4-7c6-6,15.7-6,21.7,0  c2,2,3.3,4.5,4,7c0,0,0,0,0,0L85,85L76.9,64.9z M52.7,52.7c-1.5,1.5-3.9,1.5-5.4,0c-1.5-1.5-1.5-3.9,0-5.4c1.5-1.5,3.9-1.5,5.4,0  C54.2,48.8,54.2,51.2,52.7,52.7z"></path></svg>